<svg width="33" height="32" viewBox="0 0 33 32" fill="none" xmlns="http://www.w3.org/2000/svg">
<g clip-path="url(#clip0)">
<path fill-rule="evenodd" clip-rule="evenodd" d="M16.29 -6.83696e-06C12.4189 -0.00394133 8.67289 1.37083 5.72332 3.87793C2.77375 6.38503 0.813406 9.86059 0.193594 13.6818C-0.426218 17.5029 0.335016 21.4199 2.34088 24.7308C4.34674 28.0417 7.46612 30.5301 11.14 31.75C11.96 31.9 12.25 31.39 12.25 30.96C12.25 30.53 12.25 29.55 12.25 28.19C7.69999 29.18 6.73999 26 6.73999 26C6.43814 25.0144 5.79687 24.1677 4.92999 23.61C3.45999 22.61 5.04999 22.61 5.04999 22.61C5.56529 22.6828 6.05727 22.8719 6.48867 23.1629C6.92007 23.454 7.27959 23.8394 7.53999 24.29C7.76125 24.6912 8.05956 25.0447 8.41779 25.3304C8.77603 25.616 9.18714 25.8281 9.62753 25.9544C10.0679 26.0808 10.5289 26.119 10.9841 26.0667C11.4393 26.0145 11.8797 25.8728 12.28 25.65C12.3428 24.8273 12.6974 24.0542 13.28 23.47C9.65999 23.06 5.85999 21.66 5.85999 15.47C5.83514 13.853 6.43307 12.2883 7.52999 11.1C7.04145 9.69402 7.09855 8.15587 7.68999 6.78999C7.68999 6.78999 9.05999 6.34999 12.17 8.45999C14.8406 7.72675 17.6594 7.72675 20.33 8.45999C23.44 6.34999 24.8 6.78999 24.8 6.78999C25.3997 8.14142 25.471 9.66853 25 11.07C26.0969 12.2583 26.6948 13.823 26.67 15.44C26.67 21.7 22.86 23.07 19.23 23.44C19.6192 23.8313 19.9198 24.3016 20.1113 24.8193C20.3028 25.3369 20.3808 25.8896 20.34 26.44C20.34 28.62 20.34 30.38 20.34 30.91C20.34 31.44 20.63 31.85 21.46 31.69C25.092 30.4379 28.1647 27.9425 30.1351 24.6445C32.1056 21.3465 32.847 17.4582 32.2284 13.6665C31.6098 9.8748 29.671 6.42376 26.7546 3.92302C23.8381 1.42228 20.1317 0.0327823 16.29 -6.83696e-06Z" fill="white"/>
</g>
<defs>
<clipPath id="clip0">
<rect width="32.58" height="31.77" fill="white"/>
</clipPath>
</defs>
</svg>
